<?xml version="1.0" encoding="UTF-8" standalone="no"?>
<svg
   viewBox="0 0 23.936781 21.076058"
   fill="currentColor"
   version="1.1"
   id="svg4"
   sodipodi:docname="bluesky.svg"
   inkscape:version="1.2 (dc2aeda, 2022-05-15)"
   xmlns:inkscape="http://www.inkscape.org/namespaces/inkscape"
   xmlns:sodipodi="http://sodipodi.sourceforge.net/DTD/sodipodi-0.dtd"
   xmlns="http://www.w3.org/2000/svg"
   xmlns:svg="http://www.w3.org/2000/svg">
  <path
     d="m 5.18859,1.4186737 c 2.7443,2.06029 5.69594,6.23773 6.7798,8.4793997 1.08386,-2.2416297 4.0355,-6.4191097 6.7798,-8.4794397 1.98014,-1.48652002 5.18859,-2.6368 5.18859,1.02338 0,0.731 -0.4191,6.14067 -0.66492,7.0189997 -0.85443,3.0533296 -3.9679,3.8321196 -6.73749,3.3607596 4.84109,0.82388 6.07257,3.55301 3.41293,6.28214 -5.05116,5.18316 -7.25992,-1.30047 -7.82589,-2.9618 -0.10376,-0.30456 -0.1523,-0.44704 -0.15302,-0.32588 -7.2e-4,-0.12116 -0.0493,0.0213 -0.15302,0.32588 -0.56597,1.66133 -2.77473,8.14496 -7.82589,2.9618 -2.65964,-2.72913 -1.42821,-5.45826 3.41293,-6.28218 C 4.63282,13.293093 1.51935,12.514303 0.66492,9.4609734 0.4191,8.5826437 0,3.1729337 0,2.4419737 c 0,-3.66014 3.2085,-2.50991002 5.18859,-1.0233 z"
     id="path2"
   />
</svg>
